<?xml version="1.0" encoding="utf-8"?>
<!-- Generator: Adobe Illustrator 19.0.0, SVG Export Plug-In . SVG Version: 6.00 Build 0)  -->
<svg version="1.1" id="Capa_1" xmlns="http://www.w3.org/2000/svg" xmlns:xlink="http://www.w3.org/1999/xlink" x="0px" y="0px"
	 viewBox="0 0 2122 2122" style="enable-background:new 0 0 2122 2122;" xml:space="preserve">
<style type="text/css">
	.st0{fill:#F5AAAA;}
	.st1{fill:#49B486;}
	.st2{fill:#BDE4FA;}
	.st3{fill:#682221;}
	.st4{fill:#008D36;}
	.st5{fill:#507BBD;}
	.st6{fill:#FFFFFF;}
</style>
<path class="st0" d="M1867.1,1278.2c-11.7-20.6-157.4-36.9-335.5-36.9c-179.5,0-326.1,16.6-335.8,37.4c-4.2,4.3-8.9,10.3-13.8,17.7
	l-62.4,17c8.2-72,6.5-141.2,6.5-183.7c0-89.7-107.1-166.8-260.5-200.7c57.9-31.4,96.2-105.3,91.5-189.2c-0.2-3.9-0.5-7.9-0.9-11.7
	c23.8,2.7,48.1,0.6,70.2-8.1c41.6-16.4,72.5-57.1,77.4-101.5c2.3-20.8-1.4-43.3-15.2-59c-17.8-20.2-48.7-24.4-74.7-17.3
	c-26,7.1-48.3,23.5-70,39.6c6.4-16.5,16.8-31.2,25.6-46.6c8.8-15.4,16.2-32.4,15.6-50.2c-0.6-17.7-11-36.1-28.1-41.1
	c-14.1-4.2-29.3,1.4-41.9,9c-38.9,23.3-63,64.1-84.8,104.1c-1.8-0.5-3.7-1-5.6-1.4c-7.1-30.9-25.2-59.2-50.4-78.4
	c-12.5-9.5-27.8-17.1-43.3-14.9c-20.4,2.9-35.2,22.4-39.3,42.6c-4.1,20.2,0.1,41.1,4.4,61.2c-23.8-16.5-48.6-33.5-77.2-38.1
	c-28.6-4.6-62,7.1-72.9,33.9c-7.2,17.6-3.4,38,3.8,55.6c4.5,11,10.4,21.4,17.4,31c-7.9,2.7-14.3,7.3-18.4,13.7
	c-18.1,28.2,7.9,68.1,51.5,96.1c13.9,8.9,28.3,15.4,42,19.2l-54.8,139.3c-179.5,21.9-315.6,99.8-331,194.8
	c-4.4,12.4-6.9,25.6-7.2,39.4c-0.6,34.7,1.5,69.4,5.6,103.9c5.2,44.6,11.7,88.9,20.4,132.9c6.4,32.3,13,64.7,20.9,96.7
	c5.9,23.9,15.2,47.1,25.9,69.3c3,6.3,6.6,12.2,10.7,17.8c9.6,13.2,20.7,29.3,33.8,40.5c12.1,10.3,25.1,20.8,39,29
	c14.1,8.3,30.9,14.5,45.5,20.2c11.9,4.7,24.3,7.8,36.9,9.8c24.2,3.9,48.5,7.4,73.1,7.8c14.2,0.2,28.5-0.4,42.7-1.6
	c68.8-5.6,136.9-17.8,203.7-35.3c18.8,12.3,77.4,18.6,260.3,18.6c223.3,0,435.7,8.8,497.7-3.7c87.8-4.8,155-14,181.5-25.2
	c19.3-2.7,58-74.2,89.5-166.7C1867.6,1372.6,1880.6,1292.4,1867.1,1278.2z M1084.8,1567.4c-5.8-0.1-11.5-0.1-17.3-0.1
	c-11.8,0-23.1,0.1-33.9,0.2c8.9-3.3,17.7-6.5,26.6-9.8c8.5-1.9,16.4-4.8,23.7-8.7c-0.1-12.2-0.5-24.3-1.5-36.5l15.2-6.2
	C1091.7,1529,1087.4,1549.7,1084.8,1567.4z"/>
<g>
	<path class="st1" d="M1038.3,1335.6l81.3-22.2c8.2-72,6.5-141.2,6.5-183.7c0-89.7-107.1-166.8-260.5-200.7
		c-11,5.9-22.6,10.4-34.8,13c0,0,0,0-0.1,0c-0.6,0.1-1.3,0.3-1.9,0.4c0,0-0.1,0-0.1,0c-0.6,0.1-1.2,0.2-1.8,0.4c-0.1,0-0.1,0-0.2,0
		c-0.6,0.1-1.1,0.2-1.7,0.3c-0.1,0-0.2,0-0.4,0.1c-0.5,0.1-1.1,0.2-1.6,0.3c-0.1,0-0.3,0-0.4,0.1c-0.5,0.1-1.1,0.2-1.6,0.2
		c-0.1,0-0.3,0-0.4,0.1c-0.5,0.1-1.1,0.1-1.6,0.2c-0.1,0-0.3,0-0.4,0.1c-0.5,0.1-0.9,0.1-1.4,0.2c-0.1,0-0.2,0-0.3,0l-12.9,95.3
		c0,0.4-0.1,0.9-0.2,1.3l0,0h0c-0.1,0.3-0.1,0.6-0.2,0.9c-5.5,19.9-63.5,21.1-129.7,2.9c-66.1-18.3-115.3-49.2-109.8-69
		c0.2-0.8,0.5-1.5,0.9-2.3l22.3-56.5c-179.5,21.9-315.6,99.8-331,194.8c-4.4,12.4-6.9,25.6-7.2,39.4c-0.6,34.7,1.5,69.4,5.6,103.9
		c5.2,44.6,11.7,88.9,20.4,132.9c6.4,32.3,13,64.7,20.9,96.7c5.9,23.9,15.2,47.1,25.9,69.3c3,6.3,6.6,12.2,10.7,17.8
		c9.6,13.2,20.7,29.3,33.8,40.5c12.1,10.3,25.1,20.8,39,29c14.1,8.3,30.9,14.5,45.5,20.2c11.9,4.7,24.3,7.8,36.9,9.8
		c24.2,3.9,48.5,7.4,73.1,7.8c14.2,0.2,28.5-0.4,42.7-1.6c68.8-5.6,136.9-17.8,203.7-35.3c-8.5-5.6-8.8-12.4-8.8-20.4
		c0-24.6,3.2-51.8,235.3-54.1c8.9-3.3,17.7-6.5,26.6-9.8c8.5-1.9,16.4-4.8,23.7-8.7c-0.1-12.2-0.5-24.3-1.5-36.5
		c-1.4-16.4-3.9-33-8.2-49.8c-11-43.6-29.5-84.8-54.3-122.1l6-1.6L1038.3,1335.6z"/>
	<path class="st2" d="M1867.1,1278.2c-11.7-20.6-157.4-37-335.5-37c-179.5,0-326.1,16.6-335.8,37.4c-4.2,4.3-8.9,10.3-13.8,17.7
		c-19.3,29.2-43.1,80.7-63.7,141.3c-8.2,24-15.1,47.2-20.6,68.6c-5.9,22.7-10.2,43.5-12.8,61.1c-5.8-0.1-11.5-0.1-17.3-0.1
		c-11.8,0-23.1,0.1-33.9,0.2c-232,2.4-235.3,29.5-235.3,54.1c0,8,0.3,14.8,8.8,20.4c18.8,12.3,77.4,18.6,260.3,18.6
		c223.3,0,435.7,8.8,497.7-3.7c87.8-4.8,155-14,181.5-25.2c19.3-2.7,58-74.2,89.5-166.7C1867.6,1372.6,1880.6,1292.4,1867.1,1278.2z
		"/>
</g>
<ellipse transform="matrix(-8.163396e-002 0.9967 -0.9967 -8.163396e-002 1590.3495 21.3408)" class="st3" cx="785.3" cy="743.4" rx="16.4" ry="8"/>
<ellipse transform="matrix(-8.164855e-002 0.9967 -0.9967 -8.164855e-002 1742.8647 -71.2254)" class="st3" cx="904.2" cy="767.3" rx="16.4" ry="8"/>
<path class="st4" d="M1030.9,1227.6c-3.4-26.6-8-53-13.6-79.2c-1.7-7.8-13.7-4.5-12,3.3c13.4,61.5,20.2,124.4,20.6,187.3l12.4-3.4
	C1038,1299.5,1035.5,1263.4,1030.9,1227.6z"/>
<path class="st4" d="M492.3,1153.2c-0.7,47.3,3.6,93.9,11.8,140.4c8,45.3,16.8,91.1,28.8,135.6c0.5,2,2.3,3.9,4.4,4.4
	c15.1,3.5,32,2.4,47.4,1.8c15.2-0.6,30.4-1.8,45.5-4.1c31.2-4.8,62.1-11.1,92.8-18.6c59.6-14.6,118-33.5,175.9-53.9
	c32.4-11.4,64.6-23.3,96.8-35.2c6.2,3.5,11.4,9.2,15.3,15c4.5,6.6,15.3,0.4,10.8-6.3c-5.5-8-13-16.8-22.3-20.7
	c-5.4-2.2-11.2,1.5-16.3,3.4c-8.6,3.2-17.2,6.4-25.8,9.5c-32.5,12-65.1,23.7-98,34.8c-65.1,22-131.2,41.6-198.8,54.3
	c-19.5,3.7-39,6.9-58.8,8.4c-9.7,0.7-19.5,1.2-29.3,1.3c-9.2,0.1-19.2,0.6-28.5-1c-11.2-42.5-19.7-86.2-27.4-129.5
	c-8.2-46.2-12.5-92.5-11.8-139.5C504.9,1145.1,492.4,1145.1,492.3,1153.2z"/>
<path class="st3" d="M764.6,895.8c3.1,1.3,6.8-1.4,7.7-4.4c1-3.5-1.2-6.4-4.4-7.7c-31.1-12.5-51.3-43.3-51.4-76.7c0-8-12.5-8-12.5,0
	C704.1,846.4,728.3,881.2,764.6,895.8z"/>
<path class="st3" d="M657.4,668.9c11.9,7.7,22.4,16.4,30.9,25.5c12-43.3,41.5-81.5,80.6-103.8c8.8,42.9,45.5,74.2,82.8,97.1
	c26.2,16.1,54.1,29.9,84.1,36.8c6.7,1.6,13.6,2.8,20.4,3.6c23.8,2.7,48.1,0.6,70.2-8.1c41.6-16.4,72.5-57.1,77.4-101.5
	c2.3-20.8-1.4-43.3-15.2-59c-17.8-20.2-48.7-24.4-74.7-17.3c-26,7.1-48.3,23.5-70,39.6c6.4-16.5,16.8-31.2,25.6-46.6
	c8.8-15.4,16.2-32.4,15.6-50.2c-0.6-17.7-11-36.1-28.1-41.1c-14.1-4.2-29.3,1.4-41.9,9c-38.9,23.3-63,64.1-84.8,104.1
	c-1.3,2.4-2.6,4.8-3.9,7.1c-0.5-2.9-1-5.7-1.7-8.5c-7.1-30.9-25.2-59.2-50.4-78.4c-12.5-9.5-27.8-17.1-43.3-14.9
	c-20.4,2.9-35.2,22.4-39.3,42.6c-4.1,20.2,0.1,41.1,4.4,61.2c-23.8-16.5-48.6-33.5-77.2-38.1c-28.6-4.6-62,7.1-72.9,33.9
	c-7.2,17.6-3.4,38,3.8,55.6c4.5,11,10.4,21.4,17.4,31C589.5,640.8,624.6,647.9,657.4,668.9z"/>
<path class="st3" d="M654,738.6c3.5,2.3,7,4.6,10.5,7c6.7,4.5,13-6.3,6.3-10.8c-24.5-16.2-48.9-32.5-73.4-48.7
	c-3.5-2.3-7-4.6-10.5-7c-6.7-4.5-13,6.3-6.3,10.8C605.1,706.2,629.5,722.4,654,738.6z"/>
<path class="st5" d="M1153.2,1570.9c-12.1,25.3-25.2,50.2-39.3,74.5c-4,7,6.8,13.3,10.8,6.3c50-86.7,88.2-180.3,112.7-277.3
	c7-27.6,12.9-55.4,17.7-83.5c1.3-7.9-10.7-11.2-12-3.3C1226.3,1385.5,1196.1,1481.2,1153.2,1570.9z"/>
<path class="st5" d="M894.7,1605.4c-3-3.3-7.7-4.6-12-5.2c-7.2-1-14.7-1.2-21.9-0.4c-4.7,0.5-10.1,1.4-13.5,5
	c-2.6,2.7-3.3,6.2-3.3,9.8c0,3.1,0,6.2,1.5,9c2.1,3.8,6.3,5.8,10.4,6.7c6.9,1.4,14.3,1.4,21.3,0.9c5.9-0.4,12.3-1.2,16.9-5.2
	c3.1-2.7,4.1-6.7,4.1-10.6C898.2,1611.7,897.3,1608.2,894.7,1605.4z M885.2,1617.2C885.2,1617.2,885.2,1617.2,885.2,1617.2
	c0,0,0.1-0.1,0.2-0.2C885.3,1617.1,885.2,1617.2,885.2,1617.2z M885.7,1617C885.6,1617.2,885.6,1617.2,885.7,1617
	C885.6,1617.1,885.6,1617.1,885.7,1617z M859.6,1612.5c0.1,0,0.7-0.1,1-0.2c0.3,0,0.9-0.1,1-0.1c1.4-0.1,2.9-0.2,4.3-0.3
	c3.4-0.1,6.8-0.1,10.2,0.1c1.3,0.1,2.6,0.2,3.8,0.3c0,0,0.9,0.2,1.3,0.2c0.5,0.1,1,0.2,1.5,0.3c0.5,0.1,1,0.3,1.5,0.4l0.2,0.1
	c0,0,0.1,0,0.3,0.1l0,0c0.1,0,0.1,0,0.2,0h0c0,0-0.1,0-0.1,0l0.4,0.2l0.4,0.2l0,0.2c0,0.4,0.1,0.8,0.1,1.3c0,0.3,0,0.6,0,0.9
	c0-0.1,0-0.2,0.1-0.2c0,0,0,0,0,0.1l-0.1,0.4c0,0.1,0,0.1,0,0.2l0,0.1c0,0,0,0,0-0.1l0,0.1c-0.1,0-0.1,0.1-0.1,0.1l-0.7,0.4
	c-0.8,0.3-1.6,0.5-2.4,0.7c-0.5,0.1-1,0.2-1.5,0.3l-0.7,0.1c0,0,0,0,0,0c-6.1,0.5-12.2,0.7-18.3,0.2c-0.5,0-1.1-0.1-1.6-0.2
	c1.5,0.2-0.1,0-0.5-0.1c-0.9-0.2-1.8-0.4-2.7-0.6l-0.4-0.1c0.2,0.1,0.2,0.2-0.2-0.1l-0.1,0c0,0,0,0,0,0l0,0l0,0c0,0,0,0,0,0
	c0-0.4,0-0.8,0-1.3c0-0.9,0-1.9,0-2.8c0.1-0.1,0.3-0.1,0.5-0.2c-0.1,0-0.2,0-0.4,0.1c0,0,0,0-0.1,0l0,0c0.2-0.1,0.4-0.1,0.5-0.1
	C857.8,1612.9,858.7,1612.7,859.6,1612.5z M856.2,1617.3L856.2,1617.3C856.2,1617.3,856.2,1617.3,856.2,1617.3
	C856.2,1617.3,856.2,1617.3,856.2,1617.3L856.2,1617.3z M856.5,1613.2C856.5,1613.2,856.6,1613.2,856.5,1613.2L856.5,1613.2z
	 M856,1617.3C856,1617.3,856,1617.3,856,1617.3L856,1617.3C856,1617.3,856,1617.3,856,1617.3z M856.2,1613.3
	C856.2,1613.3,856.2,1613.3,856.2,1613.3C855.9,1613.4,856,1613.4,856.2,1613.3z"/>
<path class="st5" d="M953,1600.2c-7.2-1-14.7-1.2-21.9-0.4c-4.7,0.5-10.1,1.4-13.5,5c-2.6,2.7-3.3,6.2-3.3,9.8c0,3.1,0,6.2,1.5,9
	c2.1,3.8,6.3,5.8,10.4,6.7c6.9,1.4,14.3,1.4,21.3,0.9c5.9-0.4,12.3-1.2,16.9-5.2c3.1-2.7,4.1-6.7,4.1-10.6c0-3.7-0.9-7.2-3.5-10
	C962,1602.2,957.3,1600.9,953,1600.2z M955.5,1617.2C955.5,1617.2,955.5,1617.2,955.5,1617.2c0,0,0.1-0.1,0.2-0.2
	C955.7,1617.1,955.6,1617.2,955.5,1617.2z M926.6,1613.3C926.2,1613.4,926.3,1613.4,926.6,1613.3
	C926.6,1613.3,926.6,1613.3,926.6,1613.3z M926.6,1617.3L926.6,1617.3C926.6,1617.3,926.6,1617.3,926.6,1617.3
	C926.6,1617.3,926.6,1617.3,926.6,1617.3L926.6,1617.3z M926.9,1613.2C926.9,1613.2,926.9,1613.2,926.9,1613.2L926.9,1613.2z
	 M926.4,1617.3C926.4,1617.3,926.4,1617.3,926.4,1617.3L926.4,1617.3C926.4,1617.3,926.4,1617.3,926.4,1617.3z M951.2,1618.3
	l-0.7,0.1c0,0,0,0,0,0c-6.1,0.5-12.2,0.7-18.3,0.2c-0.5,0-1.1-0.1-1.6-0.2c1.5,0.2-0.1,0-0.5-0.1c-0.9-0.2-1.8-0.4-2.7-0.6l-0.4-0.1
	c0.2,0.1,0.2,0.2-0.2-0.1l-0.1,0c0,0,0,0,0,0l0,0l0,0c0,0,0,0,0,0c0-0.4,0-0.8,0-1.3c0-0.9,0-1.9,0-2.8c0.1-0.1,0.3-0.1,0.5-0.2
	c-0.1,0-0.2,0-0.4,0.1c0,0,0,0-0.1,0l0,0c0.2-0.1,0.4-0.1,0.5-0.1c0.9-0.3,1.7-0.5,2.6-0.7c0.1,0,0.7-0.1,1-0.2c0.3,0,0.9-0.1,1-0.1
	c1.4-0.1,2.9-0.2,4.3-0.3c3.4-0.1,6.8-0.1,10.2,0.1c1.3,0.1,2.6,0.2,3.8,0.3c0,0,0.9,0.2,1.3,0.2c0.5,0.1,1,0.2,1.5,0.3
	c0.5,0.1,1,0.3,1.5,0.4l0.2,0.1c0,0,0.1,0,0.3,0.1l0,0c0.1,0,0.1,0,0.2,0h0c0,0-0.1,0-0.1,0l0.4,0.2l0.4,0.2l0,0.2
	c0,0.4,0.1,0.8,0.1,1.3c0,0.3,0,0.6,0,0.9c0-0.1,0-0.2,0.1-0.2c0,0,0,0,0,0.1l-0.1,0.4c0,0.1,0,0.1,0,0.2l0,0.1c0,0,0,0,0-0.1l0,0.1
	c-0.1,0-0.1,0.1-0.1,0.1l-0.7,0.4l0,0c-0.8,0.3-1.6,0.5-2.4,0.7C952.2,1618.1,951.7,1618.2,951.2,1618.3z M956,1617.1
	C956,1617.1,956,1617.1,956,1617.1C956,1617.2,956,1617.2,956,1617.1z"/>
<path class="st5" d="M1023.4,1600.2c-7.2-1-14.7-1.2-21.9-0.4c-4.7,0.5-10.1,1.4-13.5,5c-2.6,2.7-3.3,6.2-3.3,9.8c0,3.1,0,6.2,1.5,9
	c2.1,3.8,6.3,5.8,10.4,6.7c6.9,1.4,14.3,1.4,21.3,0.9c5.9-0.4,12.3-1.2,16.9-5.2c3.1-2.7,4.1-6.7,4.1-10.6c0-3.7-0.9-7.2-3.5-10
	C1032.3,1602.2,1027.7,1600.9,1023.4,1600.2z M1025.9,1617.2C1025.9,1617.2,1025.9,1617.2,1025.9,1617.2c0,0,0.1-0.1,0.2-0.2
	C1026,1617.1,1025.9,1617.2,1025.9,1617.2z M996.9,1617.3L996.9,1617.3L996.9,1617.3C996.9,1617.3,996.9,1617.3,996.9,1617.3
	L996.9,1617.3z M997.2,1613.2C997.2,1613.2,997.2,1613.2,997.2,1613.2L997.2,1613.2z M996.9,1613.3
	C996.9,1613.3,996.9,1613.3,996.9,1613.3C996.6,1613.4,996.7,1613.4,996.9,1613.3z M996.7,1617.3
	C996.7,1617.3,996.7,1617.3,996.7,1617.3L996.7,1617.3C996.7,1617.3,996.7,1617.3,996.7,1617.3z M1021.5,1618.3l-0.7,0.1
	c0,0,0,0,0,0c-6.1,0.5-12.2,0.7-18.3,0.2c-0.5,0-1.1-0.1-1.6-0.2c1.5,0.2-0.1,0-0.5-0.1c-0.9-0.2-1.8-0.4-2.7-0.6l-0.4-0.1
	c0.2,0.1,0.2,0.2-0.2-0.1l-0.1,0c0,0,0,0,0,0l0,0l0,0c0,0,0,0,0,0c0-0.4,0-0.8,0-1.3c0-0.9,0-1.9,0-2.8c0.1-0.1,0.3-0.1,0.5-0.2
	c-0.1,0-0.2,0-0.4,0.1c0,0,0,0-0.1,0l0,0c0.2-0.1,0.4-0.1,0.5-0.1c0.9-0.3,1.7-0.5,2.6-0.7c0.1,0,0.7-0.1,1-0.2c0.3,0,0.9-0.1,1-0.1
	c1.4-0.1,2.9-0.2,4.3-0.3c3.4-0.1,6.8-0.1,10.2,0.1c1.3,0.1,2.6,0.2,3.8,0.3c0,0,0.9,0.2,1.3,0.2c0.5,0.1,1,0.2,1.5,0.3
	c0.5,0.1,1,0.3,1.5,0.4l0.2,0.1c0,0,0.1,0,0.3,0.1l0,0c0.1,0,0.1,0,0.2,0h0c0,0-0.1,0-0.1,0l0.4,0.2l0.4,0.2l0,0.2
	c0,0.4,0.1,0.8,0.1,1.3c0,0.3,0,0.6,0,0.9c0-0.1,0-0.2,0.1-0.2c0,0,0,0,0,0.1l-0.1,0.4c0,0.1,0,0.1,0,0.2l0,0.1c0,0,0,0,0-0.1l0,0.1
	c-0.1,0-0.1,0.1-0.1,0.1l-0.7,0.4l0,0c-0.8,0.3-1.6,0.5-2.4,0.7C1022.5,1618.1,1022,1618.2,1021.5,1618.3z M1026.3,1617.1
	C1026.3,1617.1,1026.3,1617.1,1026.3,1617.1C1026.3,1617.2,1026.3,1617.2,1026.3,1617.1z"/>
<ellipse transform="matrix(-0.9131 -0.4077 0.4077 -0.9131 2308.533 3376.48)" class="st5" cx="1514.1" cy="1442.3" rx="46.9" ry="76.4"/>
<path class="st5" d="M1829.9,1293.9c7.9,6.1,9.9,15.9,9.6,25.5c-0.5,13.1-4.9,25.7-5.3,38.8c-0.2,8,12.2,8,12.5,0
	c0.4-14.1,5.6-27.7,5.3-41.8c-0.2-11.6-3.8-23.9-13.3-31.3c-2.7-2.1-6.2-2.6-8.8,0C1827.8,1287.3,1827.3,1291.9,1829.9,1293.9z"/>
<path class="st5" d="M1718,1608.3c-7.8,1.7-4.5,13.8,3.3,12c32-7,48.4-37.8,61.2-64.9c1.4-3,0.8-6.7-2.2-8.5
	c-2.7-1.6-7.1-0.8-8.5,2.2C1760.3,1573.1,1746.5,1602,1718,1608.3z"/>
<path class="st6" d="M1201.5,1625.6c78.7-43.2,155.9-89.1,231.4-137.7c6.7-4.3,0.5-15.1-6.3-10.8c-75.5,48.6-152.7,94.5-231.4,137.7
	C1188.2,1618.7,1194.5,1629.4,1201.5,1625.6z"/>
<path class="st6" d="M1586.5,1388.6c52.3-31.7,104.5-63.4,156.8-95c6.9-4.2,0.6-14.9-6.3-10.8c-52.3,31.7-104.5,63.4-156.8,95
	C1573.4,1381.9,1579.6,1392.7,1586.5,1388.6z"/>
<path class="st6" d="M1738.1,1395.4c-87.7,56.6-175.8,112.4-264.4,167.5c-25.1,15.6-50.3,31.2-75.5,46.7c-6.8,4.2-0.6,15,6.3,10.8
	c88.9-54.7,177.3-110.1,265.2-166.3c24.9-15.9,49.8-31.9,74.7-47.9C1751.1,1401.8,1744.9,1391,1738.1,1395.4z"/>
<path class="st6" d="M1713.4,1515.8c-44.3,29.2-88.5,58.4-132.8,87.6c-6.7,4.4-0.4,15.2,6.3,10.8c44.3-29.2,88.5-58.4,132.8-87.6
	C1726.3,1522.2,1720.1,1511.4,1713.4,1515.8z"/>
<path class="st6" d="M1303.8,1427.8c-19.8,13.2-39.4,26.6-59,40.1c-6.6,4.5-0.3,15.3,6.3,10.8c68.7-47.4,138.6-93.1,209.7-136.8
	c20.3-12.5,40.6-24.8,61-37c6.9-4.1,0.6-14.9-6.3-10.8C1443.8,1336.8,1373.2,1381.4,1303.8,1427.8z"/>
<path class="st3" d="M832.5,843c-6.5,4.6-0.3,15.4,6.3,10.8c9.7-6.8,19.4-13.6,29.1-20.4c2.3-1.6,4.5-3.2,6.8-4.8
	c2.3-1.6,4.7-3.1,6.5-5.2c4.8-5.7,5.2-13.2,1.9-19.7c-3.1-6-6.5-11.9-9.7-17.8c-3.6-6.7-7.3-13.3-10.9-20c-3.8-7-14.6-0.8-10.8,6.3
	c6.5,11.9,13,23.9,19.5,35.8c1,1.9,2.2,3.8,1.3,6c-0.8,1.9-1.9,2.3-4.1,3.8c-3.7,2.6-7.5,5.2-11.2,7.9l-8.5,6
	C843.2,835.5,837.8,839.3,832.5,843z"/>
</svg>
